<?xml version="1.0" standalone="no"?>
<!DOCTYPE svg PUBLIC "-//W3C//DTD SVG 20010904//EN"
 "http://www.w3.org/TR/2001/REC-SVG-20010904/DTD/svg10.dtd">
<svg version="1.0" xmlns="http://www.w3.org/2000/svg"
 width="700.000000pt" height="700.000000pt" viewBox="0 0 700.000000 700.000000"
 preserveAspectRatio="xMidYMid meet">
<metadata>
Created by potrace 1.14, written by Peter Selinger 2001-2017
</metadata>
<g transform="translate(0.000000,700.000000) scale(0.100000,-0.100000)"
fill="#000000" stroke="none">
<path d="M3278 6995 c-2 -1 -41 -5 -88 -9 -87 -7 -105 -9 -225 -27 -116 -18
-123 -19 -192 -35 -184 -42 -248 -59 -369 -99 -264 -88 -538 -216 -759 -356
-346 -217 -655 -497 -910 -824 -238 -304 -432 -668 -559 -1047 -31 -94 -79
-267 -91 -329 -3 -13 -11 -58 -20 -99 -29 -147 -36 -200 -52 -370 -15 -165 -8
-592 12 -711 2 -13 6 -46 9 -74 9 -78 23 -156 51 -285 70 -325 244 -759 410
-1023 30 -47 55 -87 55 -89 0 -2 4 -8 10 -12 5 -4 35 -46 66 -94 72 -110 157
-223 266 -354 107 -129 312 -340 426 -437 118 -100 126 -106 218 -177 95 -73
234 -171 330 -232 493 -311 1074 -493 1670 -524 146 -7 540 3 642 17 17 2 53
7 80 10 28 3 84 12 125 19 41 8 89 17 105 19 17 3 41 8 55 11 14 3 39 8 55 11
212 38 682 198 880 300 30 16 64 33 75 38 117 57 324 180 440 262 378 267 695
592 947 974 168 255 305 537 394 814 57 183 113 426 126 555 4 33 9 71 11 85
9 47 11 525 4 605 -13 130 -21 202 -25 227 -3 13 -8 43 -11 68 -9 67 -70 335
-94 412 -11 37 -21 70 -21 73 0 2 -16 49 -35 102 -222 615 -578 1125 -1074
1541 -66 56 -304 230 -351 257 -235 137 -500 275 -527 275 -4 0 -26 8 -48 19
-96 46 -391 136 -562 172 -54 11 -106 22 -117 25 -11 2 -38 6 -60 9 -22 3 -51
7 -65 10 -13 2 -52 7 -86 11 -33 3 -74 8 -90 10 -32 5 -540 14 -546 9z"/>
</g>
</svg>
